<svg width="211" height="84" viewBox="0 0 211 84" fill="none" xmlns="http://www.w3.org/2000/svg">
<path d="M4 13.0518H6.78605V46.9715H26.1855L25.6696 49.5806H4V13.0518Z" fill="black"/>
<path d="M27.6822 39.7705C28.7658 44.6236 31.9646 47.4938 37.898 47.4938C44.5021 47.4938 47.0302 44.1541 47.0302 40.188C47.0302 36.0655 45.2243 33.5084 37.2789 31.5253C29.6429 29.5945 26.3409 27.0897 26.3409 21.819C26.3409 17.018 29.7977 12.5303 37.5369 12.5303C45.4824 12.5303 48.836 17.4355 49.3005 21.8711H46.4111C45.5855 17.9573 43.0574 15.1394 37.3821 15.1394C32.1708 15.1394 29.3332 17.5921 29.3332 21.6625C29.3332 25.6806 31.7066 27.2461 38.3622 28.916C48.5263 31.473 50.0226 35.5956 50.0226 39.979C50.0226 45.354 46.1531 49.9983 37.7948 49.9983C28.7658 49.9983 25.4638 44.6756 24.793 39.7702H27.6824L27.6822 39.7705Z" fill="black"/>
<path d="M83.8171 32.7773C83.8171 25.6282 83.8686 18.7919 84.0234 15.1391H83.8685C82.4239 20.0443 75.0975 38.0479 70.5056 49.5807H67.7712C64.3143 40.6572 56.73 20.6185 55.0789 15.0869H54.9757C55.2336 19.2617 55.3368 27.7677 55.3368 34.0299V49.5808H52.5508V13.0518H56.73C61.6831 25.5759 67.926 41.9618 69.2674 46.0844H69.3706C70.1962 43.4229 77.4195 25.2106 82.4755 13.0518H86.6031V49.5807H83.8171V32.7773V32.7773Z" fill="black"/>
<path d="M94.1619 5.10776C94.5719 3.11625 93.3081 1.16563 91.3391 0.75092C89.3701 0.336215 87.4415 1.61447 87.0315 3.60598C86.6214 5.59748 87.8853 7.5481 89.8543 7.9628C91.8233 8.37751 93.7518 7.09926 94.1619 5.10776Z" fill="#EC1B2E"/>
<path d="M94.8613 49.6185V32.3066H97.0156V47.6766H104.497V49.6185H94.8616H94.8613Z" fill="black"/>
<path d="M110.199 49.8562C108.271 49.8562 106.759 49.2663 105.662 48.0859C104.566 46.9057 104.017 45.2815 104.017 43.2132C104.017 41.1292 104.528 39.4695 105.551 38.2339C106.573 36.9986 107.955 36.3808 109.696 36.3808C111.311 36.3808 112.599 36.9077 113.559 37.9617C114.519 39.0157 114.999 40.4426 114.999 42.2423V43.533H106.195C106.234 45.0093 106.605 46.1303 107.307 46.896C108.01 47.6618 109.005 48.0446 110.293 48.0446C110.979 48.0446 111.631 47.9837 112.248 47.8612C112.864 47.7391 113.586 47.5002 114.414 47.1449V49.0159C113.704 49.3239 113.036 49.5409 112.412 49.667C111.787 49.7931 111.05 49.8565 110.199 49.8565V49.8562ZM109.672 38.1214C108.665 38.1214 107.869 38.4491 107.284 39.1042C106.698 39.7596 106.351 40.6714 106.242 41.8394H112.786C112.77 40.6238 112.493 39.7002 111.955 39.0684C111.416 38.437 110.656 38.1211 109.672 38.1211V38.1214Z" fill="black"/>
<path d="M124.227 46.0329C124.227 47.2488 123.778 48.19 122.881 48.8569C121.984 49.5241 120.723 49.8576 119.1 49.8576C117.406 49.8576 116.059 49.5854 115.06 49.0406V47.0987C116.473 47.7935 117.835 48.1409 119.146 48.1409C120.208 48.1409 120.98 47.9675 121.464 47.6198C121.948 47.2724 122.19 46.8068 122.19 46.2227C122.19 45.7097 121.958 45.2754 121.494 44.9201C121.029 44.5648 120.204 44.1583 119.018 43.7006C117.808 43.2267 116.957 42.8227 116.465 42.4868C115.973 42.1515 115.612 41.7744 115.382 41.3561C115.152 40.9378 115.037 40.4285 115.037 39.8286C115.037 38.7627 115.466 37.9222 116.325 37.3065C117.183 36.6908 118.362 36.3828 119.861 36.3828C121.32 36.3828 122.686 36.675 123.958 37.2592L123.244 38.9525C121.94 38.4002 120.766 38.1237 119.72 38.1237C118.846 38.1237 118.182 38.2641 117.73 38.5442C117.277 38.8246 117.051 39.2093 117.051 39.6988C117.051 40.1726 117.245 40.5652 117.636 40.8771C118.026 41.1891 118.935 41.6213 120.364 42.1737C121.433 42.5762 122.223 42.9512 122.735 43.2986C123.246 43.646 123.622 44.037 123.865 44.4708C124.106 44.9052 124.227 45.426 124.227 46.0338V46.0329Z" fill="black"/>
<path d="M133.313 46.0329C133.313 47.2488 132.864 48.19 131.967 48.8569C131.069 49.5241 129.809 49.8576 128.186 49.8576C126.492 49.8576 125.145 49.5854 124.146 49.0406V47.0987C125.559 47.7935 126.921 48.1409 128.232 48.1409C129.294 48.1409 130.066 47.9675 130.55 47.6198C131.034 47.2724 131.276 46.8068 131.276 46.2227C131.276 45.7097 131.044 45.2754 130.58 44.9201C130.115 44.5648 129.29 44.1583 128.104 43.7006C126.894 43.2267 126.043 42.8227 125.551 42.4868C125.059 42.1515 124.698 41.7744 124.468 41.3561C124.238 40.9378 124.123 40.4285 124.123 39.8286C124.123 38.7627 124.552 37.9222 125.411 37.3065C126.269 36.6908 127.448 36.3828 128.947 36.3828C130.406 36.3828 131.772 36.675 133.044 37.2592L132.33 38.9525C131.026 38.4002 129.852 38.1237 128.806 38.1237C127.932 38.1237 127.268 38.2641 126.816 38.5442C126.363 38.8246 126.137 39.2093 126.137 39.6988C126.137 40.1726 126.331 40.5652 126.722 40.8771C127.112 41.1891 128.021 41.6213 129.45 42.1737C130.519 42.5762 131.309 42.9512 131.821 43.2986C132.332 43.646 132.708 44.037 132.95 44.4708C133.192 44.9052 133.313 45.426 133.313 46.0338V46.0329Z" fill="black"/>
<path d="M145.202 43.0954C145.202 45.2191 144.671 46.877 143.61 48.0686C142.548 49.2609 141.081 49.8565 139.207 49.8565C138.044 49.8565 137.014 49.5825 136.116 49.0335C135.219 48.4848 134.528 47.6976 134.044 46.6712C133.56 45.645 133.318 44.4531 133.318 43.0951C133.318 40.9795 133.841 39.3316 134.887 38.1512C135.933 36.9711 137.4 36.3809 139.289 36.3809C141.1 36.3809 142.538 36.9829 143.604 38.1866C144.669 39.3907 145.202 41.0267 145.202 43.0947L145.202 43.0954ZM135.496 43.0954C135.496 44.7296 135.814 45.9709 136.451 46.8194C137.087 47.6682 138.025 48.0923 139.266 48.0923C140.492 48.0923 141.424 47.6682 142.065 46.8194C142.704 45.9709 143.025 44.7293 143.025 43.0954C143.025 41.4614 142.703 40.2319 142.059 39.4068C141.415 38.5819 140.472 38.1694 139.231 38.1694C136.741 38.1694 135.496 39.8115 135.496 43.0954Z" fill="black"/>
<path d="M154.896 49.6195V41.3068C154.896 40.2492 154.663 39.4616 154.199 38.9445C153.735 38.4276 153.007 38.1688 152.016 38.1688C150.697 38.1688 149.739 38.538 149.141 39.2758C148.544 40.0143 148.246 41.2159 148.246 42.8816V49.6195H146.139V36.6176H147.836L148.152 38.3937H148.27C148.668 37.7544 149.225 37.259 149.944 36.9077C150.662 36.5567 151.454 36.3809 152.321 36.3809C153.897 36.3809 155.068 36.7677 155.833 37.5413C156.598 38.3152 156.98 39.5186 156.98 41.1528V49.6195H154.896H154.896Z" fill="black"/>
<path d="M178.752 49.6192V41.2474C178.752 39.1949 177.881 38.1688 176.141 38.1688C174.947 38.1688 174.069 38.5201 173.507 39.2228C172.945 39.9254 172.664 40.9989 172.664 42.4436V49.6195H170.568V41.2477C170.568 40.2216 170.355 39.4519 169.93 38.9387C169.504 38.4258 168.839 38.1691 167.934 38.1691C166.747 38.1691 165.879 38.5362 165.329 39.2704C164.779 40.0046 164.504 41.2086 164.504 42.8819V49.6198H162.396V36.6179H164.094L164.41 38.394H164.527C164.894 37.7626 165.411 37.2691 166.079 36.9138C166.746 36.5585 167.493 36.3809 168.321 36.3809C170.334 36.3809 171.646 37.1072 172.254 38.5598H172.371C172.785 37.8653 173.349 37.3282 174.063 36.9492C174.778 36.5703 175.587 36.3809 176.493 36.3809C177.944 36.3809 179.031 36.7598 179.753 37.5176C180.475 38.2755 180.836 39.4874 180.836 41.1529V49.6195H178.752L178.752 49.6192Z" fill="black"/>
<path d="M193.589 43.0954C193.589 45.2191 193.058 46.877 191.996 48.0686C190.935 49.2609 189.467 49.8565 187.594 49.8565C186.431 49.8565 185.401 49.5825 184.503 49.0335C183.606 48.4848 182.915 47.6976 182.431 46.6712C181.947 45.645 181.705 44.4531 181.705 43.0951C181.705 40.9795 182.228 39.3316 183.274 38.1512C184.319 36.9711 185.787 36.3809 187.676 36.3809C189.486 36.3809 190.925 36.9829 191.99 38.1866C193.056 39.3907 193.588 41.0267 193.588 43.0947L193.589 43.0954ZM183.883 43.0954C183.883 44.7296 184.201 45.9709 184.837 46.8194C185.473 47.6682 186.412 48.0923 187.653 48.0923C188.878 48.0923 189.811 47.6682 190.451 46.8194C191.091 45.9709 191.411 44.7293 191.411 43.0954C191.411 41.4614 191.089 40.2319 190.445 39.4068C189.801 38.5819 188.859 38.1694 187.618 38.1694C185.128 38.1694 183.883 39.8115 183.883 43.0954Z" fill="black"/>
<path d="M202.466 49.6187L202.057 47.7713H201.963C201.323 48.5847 200.684 49.1352 200.048 49.4231C199.412 49.7111 198.61 49.8554 197.643 49.8554C196.378 49.8554 195.387 49.5201 194.669 48.849C193.951 48.1782 193.592 47.2309 193.592 46.0071C193.592 43.3707 195.648 41.989 199.762 41.8626L201.939 41.7798V41.0102C201.939 40.0235 201.729 39.2953 201.307 38.8255C200.886 38.3559 200.211 38.121 199.282 38.121C198.603 38.121 197.961 38.2237 197.356 38.429C196.751 38.6345 196.183 38.8633 195.652 39.1159L195.009 37.5174C195.656 37.17 196.363 36.8978 197.127 36.7005C197.892 36.5034 198.649 36.4043 199.399 36.4043C200.952 36.4043 202.107 36.7517 202.864 37.4465C203.621 38.1413 204 39.2465 204 40.7622V49.6196H202.466V49.6187ZM198.123 48.1384C199.301 48.1384 200.228 47.8168 200.903 47.1733C201.578 46.53 201.916 45.616 201.916 44.432V43.2598L200.019 43.3425C198.544 43.398 197.469 43.6347 196.794 44.0531C196.119 44.4717 195.781 45.1307 195.781 46.0304C195.781 46.7095 195.986 47.2305 196.396 47.5934C196.806 47.9566 197.381 48.1381 198.123 48.1381V48.1384Z" fill="black"/>
</svg>
