<svg width="800" height="200" viewBox="0 0 800 200" fill="none" xmlns="http://www.w3.org/2000/svg">
<path d="M0 52.207H11.1442V187.886H88.7421L86.6784 198.323H0V52.207Z" fill="black"/>
<path d="M94.7289 159.082C99.0633 178.494 111.859 189.975 135.592 189.975C162.009 189.975 172.121 176.616 172.121 160.752C172.121 144.262 164.897 134.034 133.116 126.101C102.572 118.378 89.3637 108.359 89.3637 87.2762C89.3637 68.0722 103.191 50.1211 134.148 50.1211C165.93 50.1211 179.344 69.7421 181.202 87.4844H169.645C166.342 71.8294 156.23 60.5578 133.528 60.5578C112.683 60.5578 101.333 70.3683 101.333 86.65C101.333 102.723 110.827 108.985 137.449 115.664C178.105 125.892 184.091 142.382 184.091 159.916C184.091 181.416 168.613 199.993 135.179 199.993C99.0633 199.993 85.8554 178.703 83.1719 159.081H94.7295L94.7289 159.082Z" fill="black"/>
<path d="M319.268 131.109C319.268 102.513 319.475 75.1677 320.094 60.5564H319.474C313.696 80.1773 284.39 152.192 266.023 198.323H255.085C241.257 162.629 210.92 82.474 204.316 60.3477H203.903C204.935 77.0469 205.347 111.071 205.347 136.12V198.323H194.203V52.2071H210.92C230.733 102.304 255.704 167.847 261.07 184.338H261.482C264.785 173.692 293.678 100.843 313.902 52.2071H330.413V198.323H319.268V131.109V131.109Z" fill="black"/>
<path d="M360.648 20.431C362.288 12.465 357.232 4.6625 349.356 3.00368C341.48 1.34486 333.766 6.45789 332.126 14.4239C330.486 22.3899 335.541 30.1924 343.417 31.8512C351.293 33.5101 359.008 28.3971 360.648 20.431Z" fill="#EC1B2E"/>
<path d="M363.446 198.474V129.227H372.063V190.707H401.987V198.474H363.447H363.446Z" fill="black"/>
<path d="M424.796 199.425C417.084 199.425 411.035 197.065 406.649 192.344C402.263 187.623 400.07 181.126 400.07 172.853C400.07 164.517 402.114 157.878 406.205 152.936C410.294 147.995 415.821 145.523 422.782 145.523C429.245 145.523 434.397 147.631 438.237 151.847C442.077 156.063 443.997 161.77 443.997 168.969V174.132H408.781C408.937 180.037 410.42 184.521 413.23 187.584C416.04 190.647 420.02 192.179 425.172 192.179C427.918 192.179 430.526 191.935 432.992 191.445C435.458 190.956 438.346 190.001 441.656 188.58V196.064C438.815 197.296 436.145 198.164 433.647 198.668C431.149 199.173 428.199 199.426 424.796 199.426V199.425ZM422.689 152.486C418.662 152.486 415.477 153.797 413.135 156.417C410.794 159.038 409.404 162.686 408.967 167.358H435.145C435.081 162.495 433.974 158.801 431.82 156.274C429.666 153.748 426.622 152.485 422.689 152.485V152.486Z" fill="black"/>
<path d="M480.91 184.132C480.91 188.995 479.114 192.76 475.525 195.428C471.934 198.097 466.892 199.43 460.399 199.43C453.624 199.43 448.238 198.342 444.242 196.163V188.395C449.892 191.174 455.341 192.564 460.586 192.564C464.831 192.564 467.922 191.87 469.858 190.479C471.793 189.09 472.762 187.227 472.762 184.891C472.762 182.839 471.832 181.102 469.975 179.68C468.117 178.259 464.816 176.633 460.071 174.802C455.231 172.907 451.828 171.291 449.861 169.947C447.894 168.606 446.449 167.098 445.53 165.424C444.608 163.751 444.149 161.714 444.149 159.314C444.149 155.051 445.865 151.689 449.3 149.226C452.734 146.763 457.449 145.531 463.443 145.531C469.28 145.531 474.744 146.7 479.834 149.037L476.977 155.81C471.762 153.601 467.063 152.495 462.881 152.495C459.384 152.495 456.729 153.056 454.919 154.177C453.108 155.298 452.203 156.837 452.203 158.795C452.203 160.691 452.982 162.261 454.544 163.509C456.105 164.756 459.742 166.485 465.456 168.695C469.732 170.305 472.893 171.805 474.939 173.194C476.983 174.584 478.49 176.148 479.458 177.883C480.426 179.621 480.91 181.704 480.91 184.135V184.132Z" fill="black"/>
<path d="M517.254 184.132C517.254 188.995 515.458 192.76 511.869 195.428C508.278 198.097 503.236 199.43 496.743 199.43C489.968 199.43 484.582 198.342 480.586 196.163V188.395C486.236 191.174 491.685 192.564 496.93 192.564C501.175 192.564 504.266 191.87 506.202 190.479C508.137 189.09 509.105 187.227 509.105 184.891C509.105 182.839 508.176 181.102 506.319 179.68C504.461 178.259 501.159 176.633 496.414 174.802C491.575 172.907 488.172 171.291 486.205 169.947C484.238 168.606 482.793 167.098 481.874 165.424C480.952 163.751 480.492 161.714 480.492 159.314C480.492 155.051 482.209 151.689 485.644 149.226C489.077 146.763 493.792 145.531 499.787 145.531C505.624 145.531 511.088 146.7 516.177 149.037L513.321 155.81C508.106 153.601 503.407 152.495 499.224 152.495C495.727 152.495 493.073 153.056 491.263 154.177C489.451 155.298 488.546 156.837 488.546 158.795C488.546 160.691 489.326 162.261 490.888 163.509C492.449 164.756 496.086 166.485 501.8 168.695C506.076 170.305 509.237 171.805 511.282 173.194C513.326 174.584 514.833 176.148 515.802 177.883C516.77 179.621 517.254 181.704 517.254 184.135V184.132Z" fill="black"/>
<path d="M564.808 172.382C564.808 180.877 562.685 187.508 558.439 192.275C554.192 197.044 548.323 199.426 540.83 199.426C536.177 199.426 532.057 198.33 528.466 196.134C524.876 193.939 522.112 190.79 520.177 186.685C518.241 182.58 517.274 177.813 517.274 172.38C517.274 163.918 519.365 157.327 523.549 152.605C527.731 147.884 533.601 145.524 541.157 145.524C548.399 145.524 554.153 147.932 558.415 152.747C562.676 157.563 564.807 164.107 564.807 172.379L564.808 172.382ZM525.986 172.382C525.986 178.918 527.258 183.884 529.803 187.278C532.347 190.673 536.102 192.369 541.066 192.369C545.967 192.369 549.698 190.673 552.258 187.278C554.818 183.884 556.098 178.917 556.098 172.382C556.098 165.846 554.811 160.928 552.234 157.627C549.659 154.328 545.889 152.678 540.925 152.678C530.965 152.678 525.986 159.246 525.986 172.382Z" fill="black"/>
<path d="M603.583 198.478V165.227C603.583 160.997 602.654 157.847 600.797 155.778C598.939 153.711 596.027 152.675 592.063 152.675C586.787 152.675 582.954 154.152 580.566 157.103C578.178 160.057 576.984 164.864 576.984 171.527V198.478H568.555V146.471H575.345L576.61 153.575H577.079C578.671 151.018 580.902 149.036 583.776 147.631C586.648 146.227 589.817 145.524 593.282 145.524C599.588 145.524 604.271 147.071 607.332 150.165C610.391 153.261 611.921 158.075 611.921 164.611V198.478H603.585H603.583Z" fill="black"/>
<path d="M699.007 198.477V164.99C699.007 156.78 695.526 152.675 688.564 152.675C683.788 152.675 680.275 154.081 678.028 156.891C675.78 159.702 674.655 163.996 674.655 169.775V198.478H666.273V164.991C666.273 160.887 665.422 157.808 663.721 155.755C662.018 153.703 659.357 152.676 655.736 152.676C650.99 152.676 647.518 154.145 645.317 157.082C643.116 160.018 642.015 164.835 642.015 171.528V198.479H633.586V146.472H640.377L641.641 153.576H642.11C643.578 151.05 645.645 149.076 648.315 147.655C650.985 146.234 653.974 145.524 657.283 145.524C665.338 145.524 670.583 148.429 673.018 154.239H673.486C675.141 151.461 677.397 149.313 680.254 147.797C683.111 146.281 686.349 145.524 689.97 145.524C695.778 145.524 700.125 147.039 703.013 150.071C705.899 153.102 707.344 157.95 707.344 164.612V198.478H699.009L699.007 198.477Z" fill="black"/>
<path d="M758.355 172.382C758.355 180.877 756.232 187.508 751.986 192.275C747.739 197.044 741.87 199.426 734.377 199.426C729.724 199.426 725.604 198.33 722.013 196.134C718.423 193.939 715.659 190.79 713.724 186.685C711.788 182.58 710.821 177.813 710.821 172.38C710.821 163.918 712.912 157.327 717.096 152.605C721.278 147.884 727.148 145.524 734.704 145.524C741.946 145.524 747.7 147.932 751.962 152.747C756.224 157.563 758.354 164.107 758.354 172.379L758.355 172.382ZM719.533 172.382C719.533 178.918 720.805 183.884 723.35 187.278C725.894 190.673 729.649 192.369 734.613 192.369C739.514 192.369 743.245 190.673 745.806 187.278C748.365 183.884 749.645 178.917 749.645 172.382C749.645 165.846 748.358 160.928 745.782 157.627C743.206 154.328 739.436 152.678 734.472 152.678C724.512 152.678 719.533 159.246 719.533 172.382Z" fill="black"/>
<path d="M793.866 198.475L792.227 191.086H791.851C789.291 194.339 786.738 196.541 784.194 197.693C781.649 198.845 778.441 199.422 774.571 199.422C769.513 199.422 765.549 198.081 762.676 195.396C759.804 192.713 758.368 188.924 758.368 184.028C758.368 173.483 766.593 167.956 783.047 167.45L791.758 167.119V164.041C791.758 160.094 790.915 157.181 789.23 155.302C787.544 153.424 784.843 152.484 781.128 152.484C778.411 152.484 775.843 152.895 773.424 153.716C771.004 154.538 768.733 155.453 766.61 156.464L764.035 150.07C766.625 148.68 769.451 147.591 772.51 146.802C775.57 146.014 778.598 145.617 781.595 145.617C787.808 145.617 792.428 147.007 795.458 149.786C798.485 152.565 800 156.986 800 163.049V198.478H793.866V198.475ZM776.492 192.554C781.206 192.554 784.913 191.267 787.614 188.693C790.313 186.12 791.664 182.464 791.664 177.728V173.039L784.078 173.37C778.177 173.592 773.876 174.539 771.176 176.212C768.475 177.887 767.125 180.523 767.125 184.122C767.125 186.838 767.945 188.922 769.584 190.374C771.223 191.826 773.525 192.553 776.492 192.553V192.554Z" fill="black"/>
</svg>
